<?xml version="1.0" encoding="UTF-8" standalone="no"?>
<svg width="800" height="800" viewBox="0 0 800 800" xmlns="http://www.w3.org/2000/svg">
  <!-- THE 5x MODEL text in center -->
  <text x="400" y="440" font-family="Arial, sans-serif" font-size="40" font-weight="bold" text-anchor="middle">THE 5x</text>
  <text x="400" y="480" font-family="Arial, sans-serif" font-size="40" font-weight="bold" text-anchor="middle">MODEL</text>
  
  <!-- Strategic Clarity (Orange) -->
  <path d="M400 180 Q550 180 600 300 Q620 350 550 400 Q500 420 400 400 Z" fill="#ff9900" />
  <circle cx="500" cy="280" r="80" fill="white" />
  <text x="500" y="270" font-family="Arial, sans-serif" font-size="14" font-weight="bold" text-anchor="middle">🔍</text>
  <text x="500" y="300" font-family="Arial, sans-serif" font-size="16" font-weight="bold" text-anchor="middle">STRATEGIC CLARITY</text>
  
  <!-- Scalable Talent (Teal) -->
  <path d="M600 300 Q650 400 600 500 Q550 600 450 570 Q400 550 420 450 Z" fill="#00b3b3" />
  <circle cx="530" cy="450" r="80" fill="white" />
  <text x="530" y="440" font-family="Arial, sans-serif" font-size="14" font-weight="bold" text-anchor="middle">👥</text>
  <text x="530" y="470" font-family="Arial, sans-serif" font-size="16" font-weight="bold" text-anchor="middle">SCALABLE TALENT</text>
  
  <!-- Relentless Focus (Red) -->
  <path d="M450 570 Q400 600 300 570 Q200 540 200 450 Q200 400 300 400 Z" fill="#ff3333" />
  <circle cx="300" cy="500" r="80" fill="white" />
  <text x="300" y="490" font-family="Arial, sans-serif" font-size="14" font-weight="bold" text-anchor="middle">🎯</text>
  <text x="300" y="520" font-family="Arial, sans-serif" font-size="16" font-weight="bold" text-anchor="middle">RELENTLESS FOCUS</text>
  
  <!-- Disciplined Execution (Navy) -->
  <path d="M200 450 Q150 350 220 250 Q280 180 350 200 Q380 220 400 300 Z" fill="#003366" />
  <circle cx="270" cy="300" r="80" fill="white" />
  <text x="270" y="290" font-family="Arial, sans-serif" font-size="14" font-weight="bold" text-anchor="middle">⚙️</text>
  <text x="270" y="320" font-family="Arial, sans-serif" font-size="16" font-weight="bold" text-anchor="middle">DISCIPLINED EXECUTION</text>
  
  <!-- Energized Culture (Light Blue-Gray) -->
  <path d="M350 200 Q380 150 420 150 Q500 150 500 210 Q500 280 400 300 Z" fill="#90a4ae" />
  <circle cx="400" cy="220" r="80" fill="white" />
  <text x="400" y="210" font-family="Arial, sans-serif" font-size="14" font-weight="bold" text-anchor="middle">✨</text>
  <text x="400" y="240" font-family="Arial, sans-serif" font-size="16" font-weight="bold" text-anchor="middle">ENERGIZED CULTURE</text>
</svg>